<svg xmlns="http://www.w3.org/2000/svg" data-name="Layer 1" viewBox="0 0 32 32" id="design-tool"><path d="M29.85,23.49l-2.12-2.13c-.01-.01-.03-.02-.04-.03a.054.054,0,0,0-.04-.03l-1.42-1.43-3.51-3.51,6.69-6.7a2.487,2.487,0,0,0,0-3.54L25.88,2.59a2.555,2.555,0,0,0-3.54,0L17.39,7.54,15.65,9.29,11.53,5.17l-.19-.16-.13-.05L5.31,2.69,2.1,1.45a.493.493,0,0,0-.53.11.513.513,0,0,0-.12.54L2.68,5.29V5.3l.03.06,2.25,5.85a.584.584,0,0,0,.21.32l4.12,4.12L6.86,18.08a.376.376,0,0,0-.07.06L4.74,20.2a.371.371,0,0,0-.07.06L2.54,22.39a.375.375,0,0,0-.06.07l-.64.63a2.487,2.487,0,0,0,0,3.54l3.53,3.53a2.487,2.487,0,0,0,3.54,0l7.45-7.44,4.97,4.97c.01.01.02.03.03.04l2.13,2.12a2.451,2.451,0,0,0,1.76.73,2.49,2.49,0,0,0,1.77-.73l2.83-2.83A2.5,2.5,0,0,0,29.85,23.49ZM17.75,8.6l1.06,1.06a.5.5,0,0,0,.7-.71L18.45,7.89l1.42-1.41,1.06,1.06a.518.518,0,0,0,.35.14.543.543,0,0,0,.36-.14.513.513,0,0,0,0-.71L20.57,5.77l1.42-1.42,2.47,2.48a.507.507,0,0,0,.36.15.485.485,0,0,0,.35-.15.5.5,0,0,0,0-.71L22.7,3.65l.35-.36a1.5,1.5,0,0,1,2.12,0l3.54,3.54a1.5,1.5,0,0,1,0,2.12l-6.7,6.7L16.35,9.99ZM15.2,10.25a.259.259,0,0,0,.07.11l.01.01.35.35,2.47,2.47a.259.259,0,0,0,.11.07l3.1,3.1.35.35.35.35,3.17,3.17-.71.7-3.16-3.16H21.3l-.35-.35v-.01l-.35-.34v-.01l-5.66-5.65V11.4l-.35-.34v-.01l-.35-.35h-.01L12.05,8.52V8.51a1.5,1.5,0,0,1-.44-1.06V6.66l3.33,3.33Zm6.44,13.51L18.48,20.6h-.01l-.35-.35v-.01l-.35-.34v-.01l-5.66-5.65v-.01l-.35-.34v-.01l-.35-.35H11.4L9.22,11.34l-.03-.03a1.523,1.523,0,0,1-.41-1.03v-1a.5.5,0,0,1,.5-.5h1a1.489,1.489,0,0,1,1.02.4l.04.04,2.19,2.19.35.35-.02.02.35.35.02-.02,5.66,5.66.35.35.36.36,3.16,3.16ZM4.47,3.44A2.641,2.641,0,0,1,3.43,4.47L2.79,2.79Zm.95.36,5.19,2V7.45a2.184,2.184,0,0,0,.03.36,2.184,2.184,0,0,0-.36-.03h-1a1.5,1.5,0,0,0-1.5,1.5v1a2.185,2.185,0,0,0,.03.36,2.184,2.184,0,0,0-.36-.03H5.8l-2-5.2A3.759,3.759,0,0,0,5.42,3.8ZM8.2,29.46a1.548,1.548,0,0,1-2.12,0L2.54,25.92a1.5,1.5,0,0,1,0-2.12l.36-.35,2.47,2.47a.495.495,0,0,0,.71,0,.513.513,0,0,0,0-.71L3.6,22.74l1.42-1.42,1.06,1.07a.518.518,0,0,0,.35.14.543.543,0,0,0,.36-.14.513.513,0,0,0,0-.71L5.73,20.62,7.14,19.2,8.2,20.26a.5.5,0,0,0,.35.15.507.507,0,0,0,.36-.15.5.5,0,0,0,0-.7L7.85,18.5l2.14-2.15,5.66,5.66Zm8.51-7.8-.35-.35L10.7,15.65l-.35-.35-.36-.36L6.66,11.61h.79a1.5,1.5,0,0,1,1.06.44l2.19,2.19.26.26a.258.258,0,0,0,.07.11l.35.35,1.06,1.06a.259.259,0,0,0,.11.07l4.51,4.51.35.35.36.36,3.16,3.16-.7.71-3.17-3.17Zm4.22,4.22,1.03-1.04.05-.05,2.78-2.78.05-.05,1.04-1.03.79.79-4.95,4.95Zm8.21.43-2.83,2.83a1.491,1.491,0,0,1-2.12,0l-1.77-1.77,4.95-4.95,1.77,1.77A1.491,1.491,0,0,1,29.14,26.31Z"></path></svg>